<?xml version="1.0" standalone="no"?>
<!DOCTYPE svg PUBLIC "-//W3C//DTD SVG 20010904//EN"
 "http://www.w3.org/TR/2001/REC-SVG-20010904/DTD/svg10.dtd">
<svg version="1.0" xmlns="http://www.w3.org/2000/svg"
 width="1024.000000pt" height="1024.000000pt" viewBox="0 0 1024.000000 1024.000000"
 preserveAspectRatio="xMidYMid meet">

<g transform="translate(0.000000,1024.000000) scale(0.100000,-0.100000)"
fill="#000000" stroke="none">
<path d="M4600 8839 c-511 -39 -962 -166 -1406 -398 -515 -270 -948 -640
-1304 -1116 -136 -183 -267 -383 -335 -515 -9 -18 -66 -84 -126 -147 -60 -63
-129 -147 -154 -187 -261 -420 -321 -1246 -140 -1950 236 -924 780 -1742 1530
-2304 587 -439 1228 -692 1944 -767 165 -17 542 -20 706 -5 461 42 895 161
1310 359 381 182 795 479 1116 800 375 376 651 766 895 1266 239 491 377 941
458 1495 23 157 176 1496 176 1541 0 18 -21 19 -555 19 l-556 0 -26 28 c-31
32 -62 98 -63 130 0 25 177 556 343 1025 19 54 29 96 23 94 -12 -5 -421 -305
-616 -453 -58 -44 -120 -90 -138 -103 l-33 -23 -112 109 c-502 488 -1012 782
-1685 972 -395 112 -860 160 -1252 130z m2213 -1482 c308 -291 339 -318 357
-305 38 27 472 358 669 510 113 87 206 156 208 155 4 -5 -286 -930 -295 -938
-4 -4 -481 -9 -1059 -12 l-1053 -6 -117 167 c-64 92 -163 234 -221 315 -57 82
-102 150 -100 151 2 2 941 -337 953 -344 0 0 -1 210 -3 467 l-4 466 163 -153
c90 -85 316 -298 502 -473z m-3327 -21 c72 -34 149 -91 244 -181 59 -56 100
-71 220 -81 l55 -5 -35 28 c-19 15 -48 40 -65 55 l-30 27 144 1 c230 0 327
-24 396 -102 70 -76 96 -178 140 -533 33 -268 76 -536 121 -742 61 -287 66
-400 25 -598 -29 -143 -74 -217 -153 -249 -48 -20 -196 -46 -265 -46 -75 0
-93 11 -93 60 0 41 -31 326 -50 461 -16 111 -61 370 -140 809 -78 427 -89 464
-139 458 -22 -2 -30 -13 -50 -63 -44 -110 -41 -167 33 -551 167 -865 192
-1062 147 -1159 -50 -111 -319 -264 -464 -265 -86 0 -167 51 -201 128 -9 21
-52 253 -96 517 -132 787 -181 1059 -196 1083 -19 29 -40 28 -74 -6 -34 -34
-70 -143 -70 -212 0 -53 24 -188 134 -755 103 -535 106 -553 113 -697 7 -140
-4 -189 -54 -249 -53 -63 -92 -74 -253 -74 -139 0 -147 1 -202 28 -160 79
-231 281 -323 925 -61 428 -102 606 -143 620 -19 6 -69 -51 -81 -94 -17 -63
-13 -192 9 -280 98 -383 186 -810 230 -1123 17 -122 -8 -168 -100 -186 -44 -8
-165 17 -234 48 -68 31 -178 135 -221 208 -61 104 -82 188 -145 564 -73 437
-86 483 -137 473 -35 -7 -45 -70 -40 -248 6 -158 33 -455 43 -472 3 -4 1 -8
-5 -8 -14 0 -64 64 -95 120 -85 156 -122 514 -82 795 76 533 210 729 559 820
51 13 111 27 135 30 47 7 59 20 168 174 82 117 192 231 256 266 45 26 64 30
128 30 70 0 82 -3 175 -49 55 -28 103 -51 107 -53 3 -2 35 34 71 79 76 98 139
158 225 217 150 101 237 115 358 57z m5059 -852 c133 -30 251 -115 274 -199
16 -58 -13 -541 -34 -576 -4 -5 -98 -9 -221 -9 l-214 0 0 28 c0 15 7 74 15
132 25 181 15 263 -33 289 -34 18 -97 13 -126 -10 -56 -44 -72 -99 -125 -414
-23 -132 -52 -305 -66 -385 -113 -644 -115 -665 -70 -718 32 -39 88 -50 139
-28 50 21 79 87 106 241 12 66 23 128 26 138 5 15 24 17 215 17 173 0 211 -2
215 -14 9 -22 -43 -269 -77 -371 -40 -117 -76 -180 -144 -244 -103 -98 -256
-144 -480 -144 -158 0 -240 15 -333 62 -71 36 -103 70 -139 146 -26 55 -28 70
-27 170 0 93 12 173 77 520 43 226 95 509 118 630 52 285 56 306 85 397 43
133 122 232 229 286 145 73 404 97 590 56z m-2815 -26 c10 -24 83 -601 123
-967 l22 -204 99 589 c54 324 100 592 103 597 6 10 415 8 433 -3 16 -10 27 59
-154 -950 -52 -289 -122 -680 -156 -870 -33 -190 -63 -357 -66 -373 l-6 -27
-211 2 -211 3 -37 220 c-49 286 -136 825 -144 893 -4 29 -9 52 -11 49 -2 -2
-13 -64 -23 -138 -18 -122 -71 -452 -137 -849 -14 -85 -28 -158 -30 -162 -3
-5 -99 -8 -215 -8 -199 0 -209 1 -209 19 0 35 354 2154 365 2189 3 9 58 12
230 12 224 0 225 0 235 -22z m1880 2 c0 -11 -66 -366 -75 -407 -5 -23 -6 -23
-214 -23 l-209 0 -13 -72 c-49 -292 -55 -333 -45 -340 6 -4 96 -8 199 -8 175
0 188 -1 184 -17 -3 -10 -20 -101 -37 -203 -18 -102 -34 -191 -36 -197 -2 -9
-35 -13 -111 -15 -59 -1 -119 -2 -133 -3 -14 -1 -59 -2 -101 -3 l-75 -2 -18
-117 c-9 -65 -42 -270 -72 -457 -29 -186 -54 -340 -54 -342 0 -2 -99 -4 -220
-4 -137 0 -220 4 -220 10 0 12 358 2158 365 2188 l5 22 440 0 c299 0 440 -3
440 -10z m-3139 -1783 c82 -55 99 -132 74 -322 -30 -225 -61 -334 -111 -394
-36 -43 -74 -61 -163 -77 -101 -18 -371 -31 -371 -17 0 6 10 32 21 59 25 56
30 163 10 188 -8 9 -24 16 -37 16 -20 0 -31 -14 -64 -79 -38 -76 -42 -81 -102
-110 -109 -54 -242 -73 -336 -49 -63 16 -133 85 -151 151 -21 74 -10 182 25
246 92 170 252 214 746 209 177 -2 230 0 240 10 19 19 -12 39 -71 47 -70 10
-81 15 -81 35 0 16 61 79 78 80 4 1 30 7 57 15 28 7 84 14 126 14 63 1 82 -3
110 -22z m-1523 -469 c-2 -7 -24 -23 -48 -35 -69 -36 -175 -29 -239 14 -26 18
-25 18 94 23 66 4 137 7 158 8 27 1 38 -2 35 -10z m4724 -311 c42 -20 103 -57
135 -81 33 -24 105 -69 159 -100 55 -32 128 -79 162 -105 l61 -48 -301 -6
c-166 -4 -386 -7 -490 -7 -103 0 -188 -2 -188 -3 0 -2 49 -105 109 -228 124
-256 172 -359 165 -359 -7 0 -533 265 -644 324 -83 45 -106 54 -116 44 -7 -7
-85 -96 -174 -198 -90 -102 -271 -309 -404 -460 -132 -151 -249 -284 -259
-295 -17 -19 -17 -19 -12 25 21 171 163 1150 170 1168 7 19 -8 16 -170 -37
-82 -27 -223 -72 -312 -100 -244 -78 -495 -189 -636 -282 -32 -22 -61 -39 -64
-39 -8 0 20 41 142 205 61 83 186 255 279 382 l168 233 376 3 c207 1 690 2
1073 2 l695 0 76 -38z"/>
</g>
</svg>
